<?xml version="1.0" encoding="UTF-8" standalone="no"?>
<!-- Generator: Adobe Illustrator 16.0.0, SVG Export Plug-In . SVG Version: 6.00 Build 0)  -->

<svg
   xmlns:dc="http://purl.org/dc/elements/1.1/"
   xmlns:cc="http://creativecommons.org/ns#"
   xmlns:rdf="http://www.w3.org/1999/02/22-rdf-syntax-ns#"
   xmlns:svg="http://www.w3.org/2000/svg"
   xmlns="http://www.w3.org/2000/svg"
   xmlns:sodipodi="http://sodipodi.sourceforge.net/DTD/sodipodi-0.dtd"
   xmlns:inkscape="http://www.inkscape.org/namespaces/inkscape"
   version="1.1"
   id="Capa_1"
   x="0px"
   y="0px"
   width="512px"
   height="512px"
   viewBox="0 0 49.652 49.652"
   style="enable-background:new 0 0 49.652 49.652;"
   xml:space="preserve"
   sodipodi:docname="1inst.svg"
   inkscape:version="0.92.1 r15371"><metadata
     id="metadata4534"><rdf:RDF><cc:Work
         rdf:about=""><dc:format>image/svg+xml</dc:format><dc:type
           rdf:resource="http://purl.org/dc/dcmitype/StillImage" /><dc:title></dc:title></cc:Work></rdf:RDF></metadata><defs
     id="defs4532" /><sodipodi:namedview
     pagecolor="#ffffff"
     bordercolor="#666666"
     borderopacity="1"
     objecttolerance="10"
     gridtolerance="10"
     guidetolerance="10"
     inkscape:pageopacity="0"
     inkscape:pageshadow="2"
     inkscape:window-width="1857"
     inkscape:window-height="1057"
     id="namedview4530"
     showgrid="false"
     inkscape:zoom="1.734375"
     inkscape:cx="256"
     inkscape:cy="256"
     inkscape:window-x="1495"
     inkscape:window-y="-8"
     inkscape:window-maximized="1"
     inkscape:current-layer="g4497" /><g
     id="g4497"><g
       id="g4495"
       style="fill:#9a6c20;fill-opacity:1"><g
         id="g4493"
         style="fill:#9a6c20;fill-opacity:1"><path
           d="M24.825,29.796c2.739,0,4.972-2.229,4.972-4.97c0-1.082-0.354-2.081-0.94-2.897c-0.903-1.252-2.371-2.073-4.029-2.073     c-1.659,0-3.126,0.82-4.031,2.072c-0.588,0.816-0.939,1.815-0.94,2.897C19.854,27.566,22.085,29.796,24.825,29.796z"
           fill="#f39f18"
           id="path4485"
           style="fill:#9a6c20;fill-opacity:1" /><polygon
           points="35.678,18.746 35.678,14.58 35.678,13.96 35.055,13.962 30.891,13.975 30.907,18.762    "
           fill="#f39f18"
           id="polygon4487"
           style="fill:#9a6c20;fill-opacity:1" /><path
           d="M24.826,0C11.137,0,0,11.137,0,24.826c0,13.688,11.137,24.826,24.826,24.826c13.688,0,24.826-11.138,24.826-24.826     C49.652,11.137,38.516,0,24.826,0z M38.945,21.929v11.56c0,3.011-2.448,5.458-5.457,5.458H16.164     c-3.01,0-5.457-2.447-5.457-5.458v-11.56v-5.764c0-3.01,2.447-5.457,5.457-5.457h17.323c3.01,0,5.458,2.447,5.458,5.457V21.929z"
           fill="#f39f18"
           id="path4489"
           style="fill:#9a6c20;fill-opacity:1" /><path
           d="M32.549,24.826c0,4.257-3.464,7.723-7.723,7.723c-4.259,0-7.722-3.466-7.722-7.723c0-1.024,0.204-2.003,0.568-2.897     h-4.215v11.56c0,1.494,1.213,2.704,2.706,2.704h17.323c1.491,0,2.706-1.21,2.706-2.704v-11.56h-4.217     C32.342,22.823,32.549,23.802,32.549,24.826z"
           fill="#f39f18"
           id="path4491"
           style="fill:#9a6c20;fill-opacity:1" /></g></g></g><g
     id="g4499" /><g
     id="g4501" /><g
     id="g4503" /><g
     id="g4505" /><g
     id="g4507" /><g
     id="g4509" /><g
     id="g4511" /><g
     id="g4513" /><g
     id="g4515" /><g
     id="g4517" /><g
     id="g4519" /><g
     id="g4521" /><g
     id="g4523" /><g
     id="g4525" /><g
     id="g4527" /></svg>